<?xml version="1.0" encoding="UTF-8" standalone="no"?>
<!DOCTYPE svg PUBLIC "-//W3C//DTD SVG 1.1//EN" "http://www.w3.org/Graphics/SVG/1.1/DTD/svg11.dtd">
<svg width="100%" height="100%" viewBox="0 0 2085 2085" version="1.1" xmlns="http://www.w3.org/2000/svg" xmlns:xlink="http://www.w3.org/1999/xlink" xml:space="preserve" xmlns:serif="http://www.serif.com/" style="fill-rule:evenodd;clip-rule:evenodd;stroke-linejoin:round;stroke-miterlimit:2;">
    <g transform="matrix(1,0,0,1,-2343,-2343)">
        <g id="AddDocument" transform="matrix(4.166667,0,0,4.166667,2343.75,2343.75)">
            <rect x="0" y="0" width="500" height="500" style="fill:none;"/>
            <g id="Layer-1" serif:id="Layer 1">
                <g transform="matrix(1,0,0,1,411.0684,16.9009)">
                    <path d="M0,101.992L-85.56,101.992C-92.549,101.992 -98.216,96.326 -98.216,89.336L-98.216,3.776C-98.216,1.26 -95.173,0 -93.394,1.779L1.997,97.17C3.777,98.95 2.516,101.992 0,101.992" style="fill:rgb(217,217,217);fill-rule:nonzero;"/>
                </g>
                <g transform="matrix(1,0,0,1,250,191.2703)">
                    <path d="M0,117.46C-32.436,117.46 -58.73,91.166 -58.73,58.73C-58.73,26.294 -32.436,-0.001 0,-0.001C32.436,-0.001 58.73,26.294 58.73,58.73C58.73,91.166 32.436,117.46 0,117.46M153.641,-59.511L73.841,-59.511C60.667,-59.511 49.987,-70.191 49.987,-83.366L49.987,-163.166C49.987,-171.034 43.608,-177.412 35.74,-177.412L-153.719,-177.412C-161.544,-177.412 -167.887,-171.069 -167.887,-163.244L-167.887,280.703C-167.887,288.528 -161.544,294.872 -153.719,294.872L153.719,294.872C161.544,294.872 167.887,288.528 167.887,280.703L167.887,-45.265C167.887,-53.133 161.509,-59.511 153.641,-59.511" style="fill:rgb(217,217,217);fill-rule:nonzero;"/>
                </g>
                <g transform="matrix(1,0,0,1,288.3488,259.6494)">
                    <path d="M0,-12.866L-31.916,-12.866L-31.916,-44.782C-31.916,-48.335 -34.796,-51.215 -38.349,-51.215C-41.902,-51.215 -44.782,-48.335 -44.782,-44.782L-44.782,-12.866L-76.698,-12.866C-80.251,-12.866 -83.131,-9.986 -83.131,-6.433C-83.131,-2.88 -80.251,-0 -76.698,-0L-44.782,-0L-44.782,31.916C-44.782,35.469 -41.902,38.349 -38.349,38.349C-34.796,38.349 -31.916,35.469 -31.916,31.916L-31.916,-0L0,-0C3.553,-0 6.433,-2.88 6.433,-6.433C6.433,-9.986 3.553,-12.866 0,-12.866" style="fill:rgb(217,217,217);fill-rule:nonzero;"/>
                </g>
            </g>
        </g>
    </g>
</svg>
