<?xml version="1.0" encoding="UTF-8"?>
<svg id="Layer_1" data-name="Layer 1" xmlns="http://www.w3.org/2000/svg" viewBox="0 0 500 500">
  <defs>
    <style>
      .cls-1 {
        fill: #d9d9d9;
      }

      .cls-2 {
        fill: none;
        stroke: #d9d9d9;
        stroke-linecap: round;
        stroke-linejoin: round;
        stroke-width: 10px;
      }
    </style>
  </defs>
  <g>
    <path class="cls-1" d="M315,122h95.76c2.67,0,4.01-3.23,2.12-5.12l-95.76-95.76c-1.89-1.89-5.12-.55-5.12,2.12v95.76c0,1.66,1.34,3,3,3Z"/>
    <path class="cls-1" d="M403,134h-88c-8.28,0-15-6.72-15-15V31c0-8.28-6.72-15-15-15H97c-8.28,0-15,6.72-15,15v438c0,8.28,6.72,15,15,15h306c8.28,0,15-6.72,15-15V149c0-8.28-6.72-15-15-15ZM250,309c-32.58,0-59-26.42-59-59s26.42-59,59-59,59,26.42,59,59-26.42,59-59,59Z"/>
  </g>
  <g>
    <line class="cls-2" x1="250" y1="223.8" x2="250" y2="276.2"/>
    <line class="cls-2" x1="276.2" y1="250" x2="223.8" y2="250"/>
  </g>
</svg>