<?xml version="1.0" encoding="UTF-8"?>
<svg id="Layer_1" data-name="Layer 1" xmlns="http://www.w3.org/2000/svg" viewBox="0 0 500 500">
  <defs>
    <style>
      .cls-1 {
        fill: #d9d9d9;
      }
    </style>
  </defs>
  <path class="cls-1" d="M315,122h95.76c2.67,0,4.01-3.23,2.12-5.12l-95.76-95.76c-1.89-1.89-5.12-.55-5.12,2.12v95.76c0,1.66,1.34,3,3,3Z"/>
  <path class="cls-1" d="M403,134h-88c-8.28,0-15-6.72-15-15V31c0-8.28-6.72-15-15-15H97c-8.28,0-15,6.72-15,15v438c0,8.28,6.72,15,15,15h306c8.28,0,15-6.72,15-15V149c0-8.28-6.72-15-15-15ZM340,300.03c0,6.91-5.61,12.52-12.52,12.52h-64.96v64.96c0,6.91-5.61,12.52-12.52,12.52h0c-6.91,0-12.52-5.61-12.52-12.52v-64.96h-64.96c-6.91,0-12.52-5.61-12.52-12.52h0c0-6.91,5.61-12.52,12.52-12.52h64.96v-64.96c0-6.91,5.61-12.52,12.52-12.52h0c6.91,0,12.52,5.61,12.52,12.52v64.96h64.96c6.91,0,12.52,5.61,12.52,12.52h0Z"/>
</svg>