<?xml version="1.0" encoding="UTF-8" standalone="no"?>
<!DOCTYPE svg PUBLIC "-//W3C//DTD SVG 1.1//EN" "http://www.w3.org/Graphics/SVG/1.1/DTD/svg11.dtd">
<svg width="100%" height="100%" viewBox="0 0 2084 2084" version="1.1" xmlns="http://www.w3.org/2000/svg" xmlns:xlink="http://www.w3.org/1999/xlink" xml:space="preserve" xmlns:serif="http://www.serif.com/" style="fill-rule:evenodd;clip-rule:evenodd;stroke-linejoin:round;stroke-miterlimit:2;">
    <g transform="matrix(1,0,0,1,0,-4635)">
        <g id="AddFolder2" transform="matrix(1,0,0,1,0,-0.416667)">
            <rect x="0" y="4635.417" width="2083.333" height="2083.333" style="fill:none;"/>
            <g transform="matrix(1,0,0,1,0,0.416667)">
                <rect x="0" y="4635" width="2083.333" height="2083.333" style="fill:rgb(1,9,22);"/>
            </g>
            <g transform="matrix(1.474172,0,0,1.474172,-687.083472,-1864.020232)">
                <g transform="matrix(1250,0,0,1250,746.002689,5492.98355)">
                    <path d="M0.453,-0.559L0.453,-0.604L0.638,-0.604L0.638,-0.559C0.618,-0.556 0.604,-0.55 0.595,-0.54C0.587,-0.529 0.583,-0.515 0.583,-0.495L0.583,-0L0.497,-0L0.144,-0.487L0.172,-0.492L0.172,-0.112C0.172,-0.089 0.177,-0.073 0.188,-0.064C0.199,-0.054 0.213,-0.048 0.232,-0.044L0.232,-0L0.044,-0L0.044,-0.044C0.062,-0.048 0.076,-0.054 0.086,-0.063C0.095,-0.072 0.1,-0.086 0.1,-0.105L0.1,-0.492C0.1,-0.51 0.096,-0.524 0.088,-0.537C0.08,-0.549 0.066,-0.556 0.044,-0.559L0.044,-0.604L0.205,-0.604L0.555,-0.118L0.511,-0.107L0.511,-0.492C0.511,-0.515 0.506,-0.532 0.497,-0.541C0.487,-0.551 0.473,-0.557 0.453,-0.559Z" style="fill:url(#_Linear1);fill-rule:nonzero;"/>
                </g>
                <g transform="matrix(1250,0,0,1250,1582.75333,5492.98355)">
                </g>
            </g>
        </g>
    </g>
    <defs>
        <linearGradient id="_Linear1" x1="0" y1="0" x2="1" y2="0" gradientUnits="userSpaceOnUse" gradientTransform="matrix(0,0.604,-0.604,0,0.341352,-0.604)"><stop offset="0" style="stop-color:rgb(96,152,254);stop-opacity:1"/><stop offset="0.57" style="stop-color:rgb(85,145,254);stop-opacity:1"/><stop offset="0.79" style="stop-color:rgb(62,131,255);stop-opacity:1"/><stop offset="1" style="stop-color:rgb(41,117,255);stop-opacity:1"/></linearGradient>
    </defs>
</svg>
