<?xml version="1.0" encoding="UTF-8"?>
<svg id="Layer_1" data-name="Layer 1" xmlns="http://www.w3.org/2000/svg" viewBox="0 0 500 500">
  <defs>
    <style>
      .cls-1 {
        fill: #d9d9d9;
      }
    </style>
  </defs>
  <path class="cls-1" d="M463,102.62h-208c-2.76,0-5-2.24-5-5v-17.62c0-8.28-6.72-15-15-15H37c-8.28,0-15,6.72-15,15v340c0,8.28,6.72,15,15,15h426c8.28,0,15-6.72,15-15V117.62c0-8.28-6.72-15-15-15ZM327.48,282.53h-64.96v64.96c0,6.91-5.61,12.52-12.52,12.52s-12.52-5.61-12.52-12.52v-64.96h-64.96c-6.91,0-12.52-5.61-12.52-12.52s5.61-12.52,12.52-12.52h64.96v-64.96c0-6.91,5.61-12.52,12.52-12.52s12.52,5.61,12.52,12.52v64.96h64.96c6.91,0,12.52,5.61,12.52,12.52s-5.61,12.52-12.52,12.52Z"/>
</svg>