<?xml version="1.0" encoding="UTF-8" standalone="no"?>
<!DOCTYPE svg PUBLIC "-//W3C//DTD SVG 1.1//EN" "http://www.w3.org/Graphics/SVG/1.1/DTD/svg11.dtd">
<svg width="100%" height="100%" viewBox="0 0 2084 2085" version="1.1" xmlns="http://www.w3.org/2000/svg" xmlns:xlink="http://www.w3.org/1999/xlink" xml:space="preserve" xmlns:serif="http://www.serif.com/" style="fill-rule:evenodd;clip-rule:evenodd;stroke-linejoin:round;stroke-miterlimit:2;">
    <g transform="matrix(1,0,0,1,0,-2343)">
        <g id="AddFolder" transform="matrix(4.166667,0,0,4.166667,0,2343.75)">
            <rect x="0" y="0" width="500" height="500" style="fill:none;"/>
            <g id="Layer-1" serif:id="Layer 1">
                <g transform="matrix(1,0,0,1,477.65,365.29)">
                    <path d="M0,-230.58L0,37.67C0,55.39 -11.98,69.76 -26.75,69.76L-428.56,69.76C-443.33,69.76 -455.3,55.39 -455.3,37.67L-455.3,-268.25C-455.3,-285.98 -443.33,-300.34 -428.56,-300.34L-254.4,-300.34C-247.02,-300.34 -240.33,-296.75 -235.49,-290.94C-230.64,-285.14 -227.65,-277.12 -227.65,-268.25C-227.65,-265.17 -225.57,-262.67 -223,-262.67L-112.12,-262.67C-115.54,-255.21 -117.46,-246.93 -117.46,-238.19C-117.46,-205.75 -91.17,-179.46 -58.73,-179.46C-27.69,-179.46 -2.28,-203.56 -0.16,-234.07C-0.06,-232.92 0,-231.76 0,-230.58" style="fill:rgb(217,217,217);fill-rule:nonzero;"/>
                </g>
                <g transform="matrix(1,0,0,1,418.92,200.0037)">
                    <path d="M0,-145.807C-28.4,-145.807 -54.413,-129.121 -66.27,-103.298C-70.673,-93.695 -72.903,-83.471 -72.903,-72.904C-72.903,-32.705 -40.199,0 0,0C18.577,0 36.271,-6.995 49.822,-19.696C63.303,-32.332 71.432,-49.416 72.709,-67.801C72.801,-69.193 72.903,-70.982 72.903,-72.904C72.903,-113.103 40.199,-145.807 0,-145.807M-38.35,-63.254L-6.44,-63.254L-6.44,-31.334C-6.44,-27.784 -3.56,-24.904 0,-24.904C1.77,-24.904 3.38,-25.624 4.55,-26.784C5.71,-27.954 6.43,-29.554 6.43,-31.334L6.43,-63.254L38.35,-63.254C41.9,-63.254 44.78,-66.134 44.78,-69.684C44.78,-73.244 41.9,-76.124 38.35,-76.124L6.43,-76.124L6.43,-108.034C6.43,-111.594 3.55,-114.474 0,-114.474C-3.56,-114.474 -6.44,-111.594 -6.44,-108.034L-6.44,-76.124L-38.35,-76.124C-41.91,-76.124 -44.79,-73.244 -44.79,-69.684C-44.79,-66.134 -41.91,-63.254 -38.35,-63.254M0,-131.634C32.43,-131.634 58.73,-105.344 58.73,-72.904C58.73,-71.514 58.66,-70.144 58.57,-68.784C56.45,-38.274 31.04,-14.174 0,-14.174C-32.44,-14.174 -58.73,-40.464 -58.73,-72.904C-58.73,-81.644 -56.81,-89.924 -53.39,-97.384C-44.11,-117.594 -23.7,-131.634 0,-131.634" style="fill:rgb(217,217,217);fill-rule:nonzero;"/>
                </g>
            </g>
        </g>
    </g>
</svg>
