<?xml version="1.0" encoding="UTF-8"?>
<svg id="Layer_1" data-name="Layer 1" xmlns="http://www.w3.org/2000/svg" viewBox="0 0 500 500">
  <defs>
    <style>
      .cls-1 {
        fill: #d9d9d9;
      }

      .cls-2 {
        fill: none;
        stroke: #d9d9d9;
        stroke-linecap: round;
        stroke-linejoin: round;
        stroke-width: 10px;
      }
    </style>
  </defs>
  <path class="cls-1" d="M478,124v296c0,8.28-6.72,15-15,15H37c-8.28,0-15-6.72-15-15V80c0-8.28,6.72-15,15-15h198c8.28,0,15,6.72,15,15v17.62c0,2.76,2.24,5,5,5h109c-2.59,6.63-4,13.84-4,21.38,0,32.58,26.42,59,59,59s59-26.42,59-59Z"/>
  <path class="cls-1" d="M419,65c28.25,0,51.88,19.87,57.65,46.4.88,4.06,1.35,8.27,1.35,12.6,0,32.58-26.42,59-59,59s-59-26.42-59-59c0-7.54,1.41-14.75,4-21.38,8.56-22.02,29.96-37.62,55-37.62M419,55c-14.18,0-27.8,4.27-39.4,12.35-11.32,7.89-19.94,18.83-24.92,31.65-3.1,7.94-4.68,16.36-4.68,25,0,38.05,30.95,69,69,69s69-30.95,69-69c0-4.94-.53-9.89-1.58-14.72-3.3-15.16-11.77-28.93-23.85-38.78-12.26-10-27.73-15.5-43.57-15.5h0Z"/>
  <g>
    <line class="cls-2" x1="419" y1="97.8" x2="419" y2="150.2"/>
    <line class="cls-2" x1="445.2" y1="124" x2="392.8" y2="124"/>
  </g>
</svg>