<?xml version="1.0" encoding="UTF-8"?>
<svg id="Layer_1" data-name="Layer 1" xmlns="http://www.w3.org/2000/svg" viewBox="0 0 500 500">
  <defs>
    <style>
      .cls-1 {
        fill: #d9d9d9;
      }
    </style>
  </defs>
  <path class="cls-1" d="M411.07,118.89h-85.56c-6.99,0-12.66-5.67-12.66-12.66V20.68c0-2.52,3.04-3.78,4.82-2l95.39,95.39c1.78,1.78.52,4.82-2,4.82"/>
  <path class="cls-1" d="M403.64,131.76h-79.8c-13.17,0-23.85-10.68-23.85-23.85V28.1c0-7.87-6.38-14.25-14.25-14.25H96.28c-7.83,0-14.17,6.34-14.17,14.17v443.95c0,7.83,6.34,14.17,14.17,14.17h307.44c7.83,0,14.17-6.34,14.17-14.17V146.01c0-7.87-6.38-14.25-14.25-14.25ZM249.3,390.03c-6.21,0-11.25-5.04-11.25-11.25s5.04-11.25,11.25-11.25,11.25,5.04,11.25,11.25-5.04,11.25-11.25,11.25ZM280.11,309.48c-3.93,3.03-8,6.15-11.6,9.75-7.7,7.68-7.95,14.17-7.95,14.45v11.35c0,6.21-5.04,11.25-11.25,11.25s-11.25-5.04-11.25-11.25v-11.25c-.06-1.16-.21-15.71,14.55-30.45,4.65-4.64,9.49-8.37,13.79-11.68,11.55-8.89,16.66-13.34,16.66-25.37,0-18.61-15.14-33.75-33.75-33.75-15.69,0-28.92,10.77-32.68,25.31-1.28,4.97-5.76,8.44-10.89,8.44h0c-7.3,0-12.74-6.86-10.93-13.92,6.21-24.3,28.29-42.33,54.51-42.33,31.02,0,56.25,25.23,56.25,56.25,0,23.62-13.52,34.02-25.45,43.2Z"/>
</svg>