<?xml version="1.0" encoding="UTF-8"?>
<svg id="Layer_1" data-name="Layer 1" xmlns="http://www.w3.org/2000/svg" viewBox="0 0 500 500">
  <defs>
    <style>
      .cls-1 {
        fill: #d9d9d9;
      }
    </style>
  </defs>
  <g>
    <path class="cls-1" d="M315,122h95.76c2.67,0,4.01-3.23,2.12-5.12l-95.76-95.76c-1.89-1.89-5.12-.55-5.12,2.12v95.76c0,1.66,1.34,3,3,3Z"/>
    <path class="cls-1" d="M403,134h-88c-8.28,0-15-6.72-15-15V31c0-8.28-6.72-15-15-15H97c-8.28,0-15,6.72-15,15v438c0,8.28,6.72,15,15,15h306c8.28,0,15-6.72,15-15V149c0-8.28-6.72-15-15-15ZM250,309c-32.58,0-59-26.42-59-59s26.42-59,59-59,59,26.42,59,59-26.42,59-59,59Z"/>
  </g>
  <path class="cls-1" d="M249.72,214.42c-10.36,0-19.09,7.12-21.55,16.73-.71,2.79,1.44,5.5,4.32,5.5h0c2.03,0,3.8-1.37,4.3-3.34,1.49-5.75,6.71-10,12.92-10,7.36,0,13.34,5.99,13.34,13.34,0,4.75-2.02,6.51-6.59,10.03-1.7,1.31-3.62,2.78-5.45,4.62-5.83,5.83-5.77,11.58-5.75,12.04v4.45c0,2.46,1.99,4.45,4.45,4.45h0c2.46,0,4.45-1.99,4.45-4.45v-4.49c0-.11.1-2.67,3.14-5.71,1.42-1.42,3.03-2.66,4.58-3.86,4.71-3.63,10.06-7.74,10.06-17.08,0-12.26-9.97-22.24-22.24-22.24ZM249.72,276.68h0c2.46,0,4.45,1.99,4.45,4.45h0c0,2.46-1.99,4.45-4.45,4.45h0c-2.46,0-4.45-1.99-4.45-4.45h0c0-2.46,1.99-4.45,4.45-4.45Z"/>
</svg>