<?xml version="1.0" encoding="UTF-8" standalone="no"?>
<!DOCTYPE svg PUBLIC "-//W3C//DTD SVG 1.1//EN" "http://www.w3.org/Graphics/SVG/1.1/DTD/svg11.dtd">
<svg width="100%" height="100%" viewBox="0 0 2084 2085" version="1.1" xmlns="http://www.w3.org/2000/svg" xmlns:xlink="http://www.w3.org/1999/xlink" xml:space="preserve" xmlns:serif="http://www.serif.com/" style="fill-rule:evenodd;clip-rule:evenodd;stroke-linejoin:round;stroke-miterlimit:2;">
    <g transform="matrix(1,0,0,1,-4687,-2343)">
        <g id="Docs" transform="matrix(4.166667,0,0,4.166667,4687.5,2343.75)">
            <rect x="0" y="0" width="500" height="500" style="fill:none;"/>
            <g id="Layer-1" serif:id="Layer 1">
            </g>
            <g transform="matrix(1,0,0,1,-2.58,-5.1)">
                <path d="M420.467,151.105L420.467,477.074C420.467,484.899 414.124,491.242 406.298,491.242L98.861,491.242C91.036,491.242 84.693,484.899 84.693,477.074L84.693,33.126C84.693,25.301 91.036,18.958 98.861,18.958L288.321,18.958C296.188,18.958 302.566,25.336 302.566,33.204L302.566,113.005C302.566,126.179 313.246,136.859 326.42,136.859L406.221,136.859C414.089,136.859 420.467,143.237 420.467,151.105ZM252.58,196.37C228.88,196.37 208.47,210.41 199.19,230.62C195.77,238.08 193.85,246.36 193.85,255.1C193.85,287.54 220.14,313.83 252.58,313.83C283.62,313.83 309.03,289.73 311.15,259.22C311.24,257.86 311.31,256.49 311.31,255.1C311.31,222.66 285.01,196.37 252.58,196.37ZM413.648,123.993L328.088,123.993C321.099,123.993 315.432,118.327 315.432,111.337L315.432,25.777C315.432,23.261 318.475,22.001 320.254,23.78L415.645,119.171C417.425,120.951 416.164,123.993 413.648,123.993Z" style="fill:rgb(217,217,217);"/>
            </g>
            <g transform="matrix(5.59775,0,0,5.59775,182.692251,186.0434)">
                <path d="M12,4C9.497,4 7.418,5.849 7.056,8.252C7.027,8.439 7.081,8.629 7.204,8.773C7.327,8.917 7.507,9 7.696,9C7.929,9 8.186,9 8.409,9C8.723,9 8.992,8.775 9.047,8.467C9.3,7.066 10.528,6 12,6C13.654,6 15,7.346 15,9C15,10.069 14.546,10.465 13.519,11.255C13.137,11.549 12.706,11.881 12.293,12.293C10.981,13.604 10.995,14.897 11,15L11,16.351C11,16.523 11.068,16.688 11.19,16.81C11.312,16.932 11.477,17 11.649,17L12.351,17C12.71,17 13,16.71 13,16.351L13,14.991C13,14.967 13.023,14.39 13.707,13.707C14.027,13.387 14.389,13.109 14.738,12.84C15.798,12.024 17,11.1 17,9C17,6.243 14.757,4 12,4ZM11,18.649C11,18.291 11.291,18 11.649,18L12.351,18C12.709,18 13,18.291 13,18.649L13,19.351C13,19.709 12.709,20 12.351,20L11.649,20C11.291,20 11,19.709 11,19.351L11,18.649Z" style="fill:rgb(217,217,217);fill-rule:nonzero;"/>
            </g>
            <g id="Layer-11" serif:id="Layer 1">
            </g>
        </g>
    </g>
</svg>
