<?xml version="1.0" encoding="UTF-8"?>
<svg id="Layer_1" data-name="Layer 1" xmlns="http://www.w3.org/2000/svg" viewBox="0 0 500 500">
  <defs>
    <style>
      .cls-1 {
        fill: #d9d9d9;
      }
    </style>
  </defs>
  <path class="cls-1" d="M417.89,146.01v325.97c0,7.83-6.34,14.17-14.17,14.17H96.28c-7.83,0-14.17-6.34-14.17-14.17V28.03c0-7.83,6.34-14.17,14.17-14.17h189.46c7.87,0,14.25,6.38,14.25,14.25v79.8c0,13.17,10.68,23.85,23.85,23.85h79.8c7.87,0,14.25,6.38,14.25,14.25Z"/>
  <path class="cls-1" d="M411.07,118.89h-85.56c-6.99,0-12.66-5.67-12.66-12.66V20.68c0-2.52,3.04-3.78,4.82-2l95.39,95.39c1.78,1.78.52,4.82-2,4.82Z"/>
</svg>