<?xml version="1.0" encoding="UTF-8" standalone="no"?>
<!DOCTYPE svg PUBLIC "-//W3C//DTD SVG 1.1//EN" "http://www.w3.org/Graphics/SVG/1.1/DTD/svg11.dtd">
<svg width="100%" height="100%" viewBox="0 0 2084 2084" version="1.1" xmlns="http://www.w3.org/2000/svg" xmlns:xlink="http://www.w3.org/1999/xlink" xml:space="preserve" xmlns:serif="http://www.serif.com/" style="fill-rule:evenodd;clip-rule:evenodd;stroke-linejoin:round;stroke-miterlimit:2;">
    <g transform="matrix(1,0,0,1,-4687,0)">
        <g id="Finder" transform="matrix(4.166667,0,0,4.166667,4687.5,0)">
            <rect x="0" y="0" width="500" height="500" style="fill:none;"/>
            <g transform="matrix(1,0,0,1,450.904,397.377)">
                <path d="M-130.933,-54.618C-128.885,-23.625 -124.626,7.214 -118.333,37.676L-401.808,37.676C-416.579,37.676 -428.554,23.308 -428.554,5.584L-428.554,-300.338C-428.554,-318.062 -416.579,-332.43 -401.808,-332.43L-227.65,-332.43C-212.878,-332.43 -200.904,-318.062 -200.904,-300.338C-200.904,-297.254 -198.82,-294.754 -196.25,-294.754L-160.577,-294.754C-174.127,-258.407 -187.653,-206.282 -188.956,-127.571C-188.957,-127.539 -188.958,-127.506 -188.958,-127.474L-188.958,-127.374C-188.932,-123.511 -185.832,-120.348 -181.947,-120.27C-181.874,-120.269 -181.801,-120.269 -181.728,-120.27L-139.296,-120.27C-135.343,-120.272 -132.137,-117.069 -132.136,-113.117C-132.136,-113.043 -132.138,-112.969 -132.139,-112.896C-132.504,-98.483 -132.369,-84.071 -131.754,-69.685C-176.621,-62.067 -224.313,-75.199 -259.441,-109.082C-262.42,-111.956 -267.172,-111.87 -270.046,-108.89C-272.919,-105.911 -272.833,-101.159 -269.854,-98.286C-231.612,-61.399 -179.847,-46.843 -130.933,-54.618ZM-246.558,-234.667L-246.558,-210.089C-246.558,-205.95 -243.197,-202.589 -239.058,-202.589C-234.919,-202.589 -231.558,-205.95 -231.558,-210.089L-231.558,-234.667C-231.558,-238.806 -234.919,-242.167 -239.058,-242.167C-243.197,-242.167 -246.558,-238.806 -246.558,-234.667Z" style="fill:rgb(217,217,217);"/>
            </g>
            <g id="Layer-1" serif:id="Layer 1">
            </g>
            <g transform="matrix(0.24,0,0,0.24,-1125,0)">
                <path d="M6017.697,1365.315C6015.107,1305.397 6014.434,1245.374 6015.686,1185.336C6015.694,1185.032 6015.701,1184.724 6015.701,1184.417C6015.697,1167.951 6002.337,1154.605 5985.868,1154.614L5809.068,1154.614C5808.763,1154.617 5808.459,1154.617 5808.155,1154.611C5791.966,1154.287 5779.051,1141.109 5778.942,1125.013L5778.942,1124.594C5778.942,1124.462 5778.946,1124.326 5778.948,1124.194C5782.36,796.201 5840.736,579.041 5897.196,427.596L6566.267,427.596C6627.813,427.596 6677.708,487.463 6677.708,561.313L6677.708,1679.004C6677.708,1752.854 6627.813,1812.721 6566.267,1812.721L6073.214,1812.721C6046.988,1685.773 6029.593,1557.258 6021.114,1428.1C6153.819,1406.925 6281.469,1346.296 6385.229,1246.214C6397.642,1234.24 6398,1214.441 6386.026,1202.027C6374.052,1189.613 6354.253,1189.256 6341.839,1201.23C6249.313,1290.476 6135.866,1345.171 6017.697,1365.315ZM6228.673,677.96L6228.673,780.366C6228.673,797.613 6242.676,811.616 6259.923,811.616C6277.171,811.616 6291.173,797.613 6291.173,780.366L6291.173,677.96C6291.173,660.713 6277.171,646.71 6259.923,646.71C6242.676,646.71 6228.673,660.713 6228.673,677.96Z" style="fill:rgb(217,217,217);fill-opacity:0.81;"/>
            </g>
        </g>
    </g>
</svg>
