<?xml version="1.0" encoding="UTF-8"?>
<svg id="Layer_1" data-name="Layer 1" xmlns="http://www.w3.org/2000/svg" viewBox="0 0 500 500">
  <defs>
    <style>
      .cls-1, .cls-2 {
        fill: #d9d9d9;
      }

      .cls-2 {
        opacity: .75;
      }
    </style>
  </defs>
  <path class="cls-1" d="M344.45,417.89c-.24-1.34-.48-2.68-.7-4.01-1.2-7.07-2.27-14.15-3.22-21.25-1.12-8.39-2.07-16.81-2.83-25.24-.03-.32-.06-.63-.08-.95-7.51,2.26-15.16,4.08-22.93,5.44-11.34,1.98-22.94,3-34.67,3-51.89,0-101.03-19.84-138.38-55.86-2.74-2.65-2.82-7-.18-9.74,2.65-2.74,7-2.81,9.74-.18,34.77,33.53,80.52,52,128.82,52,11.43,0,22.69-1.03,33.72-3.07,7.74-1.41,15.35-3.31,22.79-5.68l-.23-3.44c-.99-16.35-1.31-32.74-.97-49.13v-.2c0-3.55-2.88-6.43-6.43-6.43h-38.3c-3.55-.07-6.37-3-6.29-6.55.02-1.56.04-3.11.07-4.65.01-1.01.03-2.02.06-3.02.02-1.21.06-2.41.09-3.6.03-1.16.07-2.32.11-3.47.04-1.15.08-2.29.13-3.43.09-2.23.2-4.43.31-6.61.12-2.23.25-4.44.39-6.61.07-1.08.14-2.16.22-3.22.02-.22.03-.44.04-.65.1-1.38.21-2.75.32-4.11.55-6.8,1.21-13.33,1.97-19.6.06-.53.13-1.06.19-1.58.48-3.88,1-7.66,1.56-11.33.15-1.03.31-2.04.47-3.05.2-1.27.4-2.52.61-3.77.14-.87.29-1.73.44-2.57.12-.7.24-1.39.36-2.08.12-.68.24-1.37.37-2.05.25-1.36.5-2.7.76-4.04.13-.66.26-1.32.39-1.98.15-.76.3-1.51.45-2.25.22-1.06.44-2.12.66-3.16.03-.15.06-.29.09-.43.22-1.01.44-2.02.66-3.01.28-1.28.57-2.54.86-3.79.15-.66.31-1.32.47-1.97.93-3.95,1.91-7.76,2.91-11.43.5-1.85,1.01-3.66,1.52-5.44.21-.74.42-1.47.64-2.19.56-1.91,1.12-3.77,1.7-5.6.52-1.68,1.05-3.34,1.58-4.96.06-.19.13-.39.19-.58.49-1.49.98-2.95,1.48-4.39.24-.72.49-1.43.74-2.13.88-2.53,1.77-4.98,2.66-7.36.24-.65.48-1.3.72-1.94.37-.97.73-1.92,1.1-2.86.21-.56.43-1.11.64-1.65.45-1.16.91-2.29,1.35-3.41.32-.79.64-1.58.96-2.36,3.05-7.48,5.96-14.1,8.52-20.04.24-.54.47-1.08.7-1.61h-68.77c-2.76,0-5-2.24-5-5v-17.62c0-8.28-6.72-15-15-15H37c-8.28,0-15,6.72-15,15v340c0,8.28,6.72,15,15,15h310.72c-1.18-5.69-2.27-11.39-3.27-17.11ZM171.19,152.02c0-3.8,3.09-6.89,6.89-6.89s6.89,3.09,6.89,6.89v30.4c0,3.81-3.09,6.89-6.89,6.89s-6.89-3.08-6.89-6.89v-30.4Z"/>
  <path class="cls-2" d="M463,102.62h-139.23c-.23.53-.46,1.07-.7,1.61-2.56,5.94-5.47,12.56-8.52,20.04-.32.78-.64,1.57-.96,2.36-.44,1.12-.9,2.25-1.35,3.41-.21.54-.43,1.09-.64,1.65-.37.94-.73,1.89-1.1,2.86-.24.64-.48,1.29-.72,1.94-.89,2.38-1.78,4.83-2.66,7.36-.25.7-.5,1.41-.74,2.13-.5,1.44-.99,2.9-1.48,4.39-.06.19-.13.39-.19.58-.53,1.62-1.06,3.28-1.58,4.96-.58,1.83-1.14,3.69-1.7,5.6-.22.72-.43,1.45-.64,2.19-.51,1.78-1.02,3.59-1.52,5.44-1,3.67-1.98,7.48-2.91,11.43-.16.65-.32,1.31-.47,1.97-.29,1.25-.58,2.51-.86,3.79-.22.99-.44,2-.66,3.01-.03.14-.06.28-.09.43-.22,1.04-.44,2.1-.66,3.16-.15.74-.3,1.49-.45,2.25-.13.66-.26,1.32-.39,1.98-.26,1.34-.51,2.68-.76,4.04-.13.68-.25,1.37-.37,2.05-.12.69-.24,1.38-.36,2.08-.15.84-.3,1.7-.44,2.57-.21,1.25-.41,2.5-.61,3.77-.16,1.01-.32,2.02-.47,3.05-.56,3.67-1.08,7.45-1.56,11.33-.06.52-.13,1.05-.19,1.58-.76,6.27-1.42,12.8-1.97,19.6-.11,1.36-.22,2.73-.32,4.11-.01.21-.02.43-.04.65-.08,1.06-.15,2.14-.22,3.22-.14,2.17-.27,4.38-.39,6.61-.11,2.18-.22,4.38-.31,6.61-.05,1.14-.09,2.28-.13,3.43-.04,1.15-.08,2.31-.11,3.47-.03,1.19-.07,2.39-.09,3.6-.03,1-.05,2.01-.06,3.02-.03,1.54-.05,3.09-.07,4.65-.08,3.55,2.74,6.48,6.29,6.55h38.3c3.55,0,6.43,2.88,6.43,6.43v.2c-.34,16.39-.02,32.78.97,49.13l.23,3.44c26.83-8.54,51.53-23.2,72.3-43.25,2.75-2.63,7.11-2.56,9.74.18,2.65,2.74,2.57,7.09-.16,9.74-23.12,22.3-50.77,38.4-80.79,47.42.02.32.05.63.08.95.76,8.43,1.71,16.85,2.83,25.24.95,7.1,2.02,14.18,3.22,21.25.22,1.33.46,2.67.7,4.01,1,5.72,2.09,11.42,3.27,17.11h115.28c8.28,0,15-6.72,15-15V117.62c0-8.28-6.72-15-15-15ZM389.75,182.42c0,3.81-3.08,6.89-6.88,6.89s-6.89-3.08-6.89-6.89v-30.4c0-3.8,3.07-6.89,6.89-6.89s6.88,3.09,6.88,6.89v30.4Z"/>
</svg>