<?xml version="1.0" encoding="UTF-8"?>
<svg id="Layer_1" data-name="Layer 1" xmlns="http://www.w3.org/2000/svg" viewBox="0 0 500 500">
  <defs>
    <style>
      .cls-1 {
        fill: #d9d9d9;
      }

      .cls-2 {
        fill: #c9c9c9;
      }
    </style>
  </defs>
  <path class="cls-1" d="M463,102.62h-139.23c-13.76,31.94-38.43,84.13-39.46,183.98-.08,3.55,2.74,6.48,6.29,6.55h38.3c3.55,0,6.43,2.88,6.43,6.43v.2c-.34,16.39-.02,32.78.97,49.13,25.85-4.72,49.76-16.93,69.03-35.52,1.99-1.91,5.16-1.86,7.07.13,1.92,1.99,1.86,5.15-.12,7.07-20.98,20.24-47.1,33.44-75.29,38.37,1.96,25.52,5.54,50.93,10.73,76.04h115.28c8.28,0,15-6.72,15-15V117.62c0-8.28-6.72-15-15-15ZM391.48,221.44c0,2.76-2.24,5-5,5s-5-2.24-5-5v-22.07c0-2.76,2.24-5,5-5s5,2.24,5,5v22.07Z"/>
  <path class="cls-2" d="M336.99,358.96c-8.23,1.44-16.65,2.18-25.16,2.18-37.67,0-73.34-14.4-100.45-40.55-1.99-1.92-2.05-5.08-.13-7.07,1.92-1.99,5.08-2.04,7.07-.13,25.24,24.34,58.45,37.75,93.51,37.75,8.29,0,16.47-.75,24.47-2.23-.99-16.35-1.31-32.74-.97-49.13v-.2c0-3.55-2.88-6.43-6.43-6.43h-38.3c-3.55-.07-6.37-3-6.29-6.55,1.03-99.85,25.7-152.04,39.46-183.98h-68.77c-2.76,0-5-2.24-5-5v-17.62c0-8.28-6.72-15-15-15H37c-8.28,0-15,6.72-15,15v340c0,8.28,6.72,15,15,15h310.72c-5.19-25.11-8.77-50.52-10.73-76.04ZM232.83,199.37c0-2.76,2.24-5,5-5s5,2.24,5,5v22.07c0,2.76-2.24,5-5,5s-5-2.24-5-5v-22.07Z"/>
</svg>