<?xml version="1.0" encoding="UTF-8"?>
<svg id="Layer_1" data-name="Layer 1" xmlns="http://www.w3.org/2000/svg" viewBox="0 0 500 500">
  <defs>
    <style>
      .cls-1 {
        fill: #d9d9d9;
      }
    </style>
  </defs>
  <path class="cls-1" d="M326.33,65v100.8c0,8.31-6.73,15.04-15.04,15.04h-122.59c-8.31,0-15.04-6.73-15.04-15.04v-100.8h-93.63c-8.31,0-15.04,6.73-15.04,15.04v339.92c0,8.31,6.73,15.04,15.04,15.04h339.92c8.31,0,15.04-6.73,15.04-15.04V80.04c0-8.31-6.73-15.04-15.04-15.04h-93.63Z"/>
  <path class="cls-1" d="M250,65h48.19v84.57c0,2.76-2.24,5-5,5h-38.19c-2.76,0-5-2.24-5-5v-84.57h0Z"/>
</svg>