<?xml version="1.0" encoding="UTF-8"?>
<svg id="Layer_1" data-name="Layer 1" xmlns="http://www.w3.org/2000/svg" viewBox="0 0 500 500">
  <defs>
    <style>
      .cls-1 {
        fill: #d9d9d9;
      }
    </style>
  </defs>
  <path class="cls-1" d="M419.96,65H80.04c-8.31,0-15.04,6.73-15.04,15.04v339.92c0,8.31,6.73,15.04,15.04,15.04h339.92c8.31,0,15.04-6.73,15.04-15.04V80.04c0-8.31-6.73-15.04-15.04-15.04ZM409.34,394.34c0,8.28-6.72,15-15,15h-82.45c-1.66,0-3-1.34-3-3V93.66c0-1.66,1.34-3,3-3h82.45c8.28,0,15,6.72,15,15v288.68Z"/>
</svg>