<?xml version="1.0" encoding="UTF-8" standalone="no"?>
<!DOCTYPE svg PUBLIC "-//W3C//DTD SVG 1.1//EN" "http://www.w3.org/Graphics/SVG/1.1/DTD/svg11.dtd">
<svg width="100%" height="100%" viewBox="0 0 2085 2084" version="1.1" xmlns="http://www.w3.org/2000/svg" xmlns:xlink="http://www.w3.org/1999/xlink" xml:space="preserve" xmlns:serif="http://www.serif.com/" style="fill-rule:evenodd;clip-rule:evenodd;stroke-linejoin:round;stroke-miterlimit:2;">
    <g transform="matrix(1,0,0,1,-2343,0)">
        <g id="Trash" transform="matrix(4.166667,0,0,4.166667,2343.75,0)">
            <rect x="0" y="0" width="500" height="500" style="fill:none;"/>
            <g transform="matrix(1,0,0,1,76.3468,421.9874)">
                <g id="Layer-1" serif:id="Layer 1">
                    <path d="M0,-343.975C0,-371.353 77.747,-393.548 173.653,-393.548C269.559,-393.548 347.306,-371.353 347.306,-343.975C347.306,-316.597 269.559,-294.402 173.653,-294.402C77.747,-294.402 0,-316.597 0,-343.975M365.528,-331.152L366.322,-338.896L366.322,-356.838C366.322,-387.221 280.061,-411.845 173.653,-411.845C67.245,-411.845 -19.016,-387.221 -19.016,-356.838L-19.016,-338.885L-18.75,-336.297L-18.646,-336.297L42.864,55.405C43.955,62.348 49.923,67.473 56.951,67.498C89.093,67.614 173.653,67.87 173.653,67.87C173.653,67.87 258.524,67.608 290.731,67.479C297.758,67.451 303.725,62.328 304.815,55.386L365.528,-331.152Z" style="fill:rgb(217,217,217);fill-rule:nonzero;"/>
                </g>
            </g>
        </g>
    </g>
</svg>
