<?xml version="1.0" encoding="UTF-8"?>
<svg id="Layer_1" data-name="Layer 1" xmlns="http://www.w3.org/2000/svg" viewBox="0 0 500 500">
  <defs>
    <style>
      .cls-1 {
        fill: #d9d9d9;
      }
    </style>
  </defs>
  <path class="cls-1" d="M441.88,90.84l.79-7.74v-17.94c0-30.38-86.26-55.01-192.67-55.01S57.33,34.77,57.33,65.15v17.95l.27,2.59h.1l61.51,391.7c1.09,6.94,7.06,12.07,14.09,12.09,32.14.12,116.7.37,116.7.37,0,0,84.87-.26,117.08-.39,7.03-.03,12.99-5.15,14.08-12.09l60.71-386.54ZM76.35,78.01c0-27.38,77.75-49.57,173.65-49.57s173.65,22.2,173.65,49.57-77.75,49.57-173.65,49.57-173.65-22.2-173.65-49.57"/>
</svg>