<?xml version="1.0" encoding="UTF-8" standalone="no"?>
<!DOCTYPE svg PUBLIC "-//W3C//DTD SVG 1.1//EN" "http://www.w3.org/Graphics/SVG/1.1/DTD/svg11.dtd">
<svg width="100%" height="100%" viewBox="0 0 2084 2085" version="1.1" xmlns="http://www.w3.org/2000/svg" xmlns:xlink="http://www.w3.org/1999/xlink" xml:space="preserve" xmlns:serif="http://www.serif.com/" style="fill-rule:evenodd;clip-rule:evenodd;stroke-linejoin:round;stroke-miterlimit:2;">
    <g transform="matrix(1,0,0,1,-7031,-2343)">
        <g id="View" transform="matrix(4.166667,0,0,4.166667,7031.25,2343.75)">
            <rect x="0" y="0" width="500" height="500" style="fill:none;"/>
            <g id="Layer-1" serif:id="Layer 1">
            </g>
            <g transform="matrix(0.270932,0,0,0.189275,-1922.999126,-376.365569)">
                <path d="M8717.084,3398.818C8731.767,3398.818 8745.849,3407.168 8756.232,3422.03C8766.615,3436.892 8772.448,3457.05 8772.448,3478.068C8772.448,3662.55 8772.448,4119.011 8772.448,4303.494C8772.448,4324.512 8766.615,4344.669 8756.232,4359.532C8745.849,4374.394 8731.767,4382.743 8717.084,4382.743C8586.242,4382.743 8259.123,4382.743 8128.281,4382.743C8113.598,4382.743 8099.515,4374.394 8089.133,4359.532C8078.75,4344.669 8072.917,4324.512 8072.917,4303.494C8072.917,4119.011 8072.917,3662.55 8072.917,3478.068C8072.917,3457.05 8078.75,3436.892 8089.133,3422.03C8099.515,3407.168 8113.598,3398.818 8128.281,3398.818L8717.084,3398.818Z" style="fill:rgb(217,217,217);"/>
            </g>
            <g transform="matrix(0.270932,0,0,0.412999,-2140.953545,-1356.888431)">
                <path d="M8717.084,3398.818C8731.767,3398.818 8745.849,3402.645 8756.232,3409.456C8766.615,3416.267 8772.448,3425.505 8772.448,3435.138L8772.448,4346.424C8772.448,4356.056 8766.615,4365.294 8756.232,4372.106C8745.849,4378.917 8731.767,4382.743 8717.084,4382.743L8128.281,4382.743C8113.598,4382.743 8099.515,4378.917 8089.133,4372.106C8078.75,4365.294 8072.917,4356.056 8072.917,4346.424L8072.917,3435.138C8072.917,3425.505 8078.75,3416.267 8089.133,3409.456C8099.515,3402.645 8113.598,3398.818 8128.281,3398.818L8717.084,3398.818Z" style="fill:rgb(217,217,217);"/>
            </g>
            <g transform="matrix(0.270932,0,0,0.189275,-2140.953545,-596.492755)">
                <path d="M8717.084,3398.818C8731.767,3398.818 8745.849,3407.168 8756.232,3422.03C8766.615,3436.892 8772.448,3457.05 8772.448,3478.068C8772.448,3662.55 8772.448,4119.011 8772.448,4303.494C8772.448,4324.512 8766.615,4344.669 8756.232,4359.532C8745.849,4374.394 8731.767,4382.743 8717.084,4382.743L8128.281,4382.743C8113.598,4382.743 8099.515,4374.394 8089.133,4359.532C8078.75,4344.669 8072.917,4324.512 8072.917,4303.494L8072.917,3478.068C8072.917,3457.05 8078.75,3436.892 8089.133,3422.03C8099.515,3407.168 8113.598,3398.818 8128.281,3398.818L8717.084,3398.818Z" style="fill:rgb(217,217,217);"/>
            </g>
            <g transform="matrix(0.270932,0,0,0.189275,-1922.999126,-596.492755)">
                <path d="M8717.084,3398.818C8731.767,3398.818 8745.849,3407.168 8756.232,3422.03C8766.615,3436.892 8772.448,3457.05 8772.448,3478.068C8772.448,3662.55 8772.448,4119.011 8772.448,4303.494C8772.448,4324.512 8766.615,4344.669 8756.232,4359.532C8745.849,4374.394 8731.767,4382.743 8717.084,4382.743L8128.281,4382.743C8113.598,4382.743 8099.515,4374.394 8089.133,4359.532C8078.75,4344.669 8072.917,4324.512 8072.917,4303.494L8072.917,3478.068C8072.917,3457.05 8078.75,3436.892 8089.133,3422.03C8099.515,3407.168 8113.598,3398.818 8128.281,3398.818C8259.123,3398.818 8586.242,3398.818 8717.084,3398.818Z" style="fill:rgb(217,217,217);"/>
            </g>
        </g>
    </g>
</svg>
